<mxfile host="app.diagrams.net" modified="2024-02-21T12:57:11.162Z" agent="Mozilla/5.0 (Windows NT 10.0; Win64; x64) AppleWebKit/537.36 (KHTML, like Gecko) Chrome/121.0.0.0 Safari/537.36 Edg/121.0.0.0" etag="kVEYgPQ3jFS5yVKo0hMC" version="23.1.2" type="github">
  <diagram name="Page-1" id="DPfF3AFMkktQGf2H1Ztt">
    <mxGraphModel dx="2189" dy="759" grid="1" gridSize="10" guides="1" tooltips="1" connect="1" arrows="1" fold="1" page="1" pageScale="1" pageWidth="850" pageHeight="1100" math="0" shadow="0">
      <root>
        <mxCell id="0" />
        <mxCell id="1" parent="0" />
        <mxCell id="s9DNXZGF0qZsPj_wz88P-4" style="edgeStyle=orthogonalEdgeStyle;rounded=0;orthogonalLoop=1;jettySize=auto;html=1;entryX=0.5;entryY=0;entryDx=0;entryDy=0;" parent="1" source="s9DNXZGF0qZsPj_wz88P-1" target="s9DNXZGF0qZsPj_wz88P-2" edge="1">
          <mxGeometry relative="1" as="geometry" />
        </mxCell>
        <mxCell id="s9DNXZGF0qZsPj_wz88P-6" style="edgeStyle=orthogonalEdgeStyle;rounded=0;orthogonalLoop=1;jettySize=auto;html=1;" parent="1" source="s9DNXZGF0qZsPj_wz88P-1" target="s9DNXZGF0qZsPj_wz88P-5" edge="1">
          <mxGeometry relative="1" as="geometry" />
        </mxCell>
        <mxCell id="s9DNXZGF0qZsPj_wz88P-35" style="edgeStyle=orthogonalEdgeStyle;rounded=0;orthogonalLoop=1;jettySize=auto;html=1;entryX=0.5;entryY=0;entryDx=0;entryDy=0;" parent="1" source="s9DNXZGF0qZsPj_wz88P-1" target="s9DNXZGF0qZsPj_wz88P-36" edge="1">
          <mxGeometry relative="1" as="geometry">
            <mxPoint x="30" y="190" as="targetPoint" />
          </mxGeometry>
        </mxCell>
        <mxCell id="s9DNXZGF0qZsPj_wz88P-1" value="Start" style="rounded=0;whiteSpace=wrap;html=1;" parent="1" vertex="1">
          <mxGeometry x="500" y="40" width="120" height="60" as="geometry" />
        </mxCell>
        <mxCell id="s9DNXZGF0qZsPj_wz88P-31" style="edgeStyle=orthogonalEdgeStyle;rounded=0;orthogonalLoop=1;jettySize=auto;html=1;" parent="1" source="s9DNXZGF0qZsPj_wz88P-2" target="s9DNXZGF0qZsPj_wz88P-30" edge="1">
          <mxGeometry relative="1" as="geometry" />
        </mxCell>
        <mxCell id="s9DNXZGF0qZsPj_wz88P-2" value="Wygenerowanie x statementów i ich zapisanie" style="whiteSpace=wrap;html=1;" parent="1" vertex="1">
          <mxGeometry x="500" y="180" width="120" height="60" as="geometry" />
        </mxCell>
        <mxCell id="s9DNXZGF0qZsPj_wz88P-11" style="edgeStyle=orthogonalEdgeStyle;rounded=0;orthogonalLoop=1;jettySize=auto;html=1;" parent="1" source="s9DNXZGF0qZsPj_wz88P-5" target="s9DNXZGF0qZsPj_wz88P-7" edge="1">
          <mxGeometry relative="1" as="geometry" />
        </mxCell>
        <mxCell id="s9DNXZGF0qZsPj_wz88P-5" value="Konfiguracja statementów/atrybutów" style="rounded=0;whiteSpace=wrap;html=1;" parent="1" vertex="1">
          <mxGeometry x="140" y="180" width="120" height="60" as="geometry" />
        </mxCell>
        <mxCell id="s9DNXZGF0qZsPj_wz88P-19" style="edgeStyle=orthogonalEdgeStyle;rounded=0;orthogonalLoop=1;jettySize=auto;html=1;" parent="1" source="s9DNXZGF0qZsPj_wz88P-7" target="s9DNXZGF0qZsPj_wz88P-8" edge="1">
          <mxGeometry relative="1" as="geometry" />
        </mxCell>
        <mxCell id="s9DNXZGF0qZsPj_wz88P-7" value="Konto/CC" style="rounded=0;whiteSpace=wrap;html=1;" parent="1" vertex="1">
          <mxGeometry x="140" y="320" width="120" height="60" as="geometry" />
        </mxCell>
        <mxCell id="s9DNXZGF0qZsPj_wz88P-20" style="edgeStyle=orthogonalEdgeStyle;rounded=0;orthogonalLoop=1;jettySize=auto;html=1;entryX=0.5;entryY=0;entryDx=0;entryDy=0;" parent="1" source="s9DNXZGF0qZsPj_wz88P-8" target="s9DNXZGF0qZsPj_wz88P-9" edge="1">
          <mxGeometry relative="1" as="geometry" />
        </mxCell>
        <mxCell id="s9DNXZGF0qZsPj_wz88P-8" value="Kolumny" style="rounded=0;whiteSpace=wrap;html=1;" parent="1" vertex="1">
          <mxGeometry x="140" y="440" width="120" height="60" as="geometry" />
        </mxCell>
        <mxCell id="s9DNXZGF0qZsPj_wz88P-22" style="edgeStyle=orthogonalEdgeStyle;rounded=0;orthogonalLoop=1;jettySize=auto;html=1;entryX=0.5;entryY=0;entryDx=0;entryDy=0;" parent="1" source="s9DNXZGF0qZsPj_wz88P-9" target="s9DNXZGF0qZsPj_wz88P-21" edge="1">
          <mxGeometry relative="1" as="geometry" />
        </mxCell>
        <mxCell id="s9DNXZGF0qZsPj_wz88P-9" value="Dodatkowe opcje&lt;br&gt;Blanki&lt;br&gt;Tylko faktury&lt;br&gt;Na konkretny Patment date&lt;br&gt;Szczegóły maila" style="rounded=0;whiteSpace=wrap;html=1;" parent="1" vertex="1">
          <mxGeometry x="140" y="560" width="120" height="140" as="geometry" />
        </mxCell>
        <mxCell id="s9DNXZGF0qZsPj_wz88P-16" value="Okno główne" style="text;html=1;align=center;verticalAlign=middle;resizable=0;points=[];autosize=1;strokeColor=none;fillColor=none;" parent="1" vertex="1">
          <mxGeometry x="515" y="10" width="90" height="30" as="geometry" />
        </mxCell>
        <mxCell id="s9DNXZGF0qZsPj_wz88P-17" value="Okno do samej wysyłki" style="text;html=1;align=center;verticalAlign=middle;resizable=0;points=[];autosize=1;strokeColor=none;fillColor=none;" parent="1" vertex="1">
          <mxGeometry x="420" y="150" width="150" height="30" as="geometry" />
        </mxCell>
        <mxCell id="s9DNXZGF0qZsPj_wz88P-18" value="Okno startowe konfiguracji" style="text;html=1;align=center;verticalAlign=middle;resizable=0;points=[];autosize=1;strokeColor=none;fillColor=none;" parent="1" vertex="1">
          <mxGeometry x="40" y="150" width="160" height="30" as="geometry" />
        </mxCell>
        <mxCell id="s9DNXZGF0qZsPj_wz88P-26" style="edgeStyle=orthogonalEdgeStyle;rounded=0;orthogonalLoop=1;jettySize=auto;html=1;entryX=0;entryY=0.25;entryDx=0;entryDy=0;" parent="1" source="s9DNXZGF0qZsPj_wz88P-21" target="s9DNXZGF0qZsPj_wz88P-2" edge="1">
          <mxGeometry relative="1" as="geometry" />
        </mxCell>
        <mxCell id="s9DNXZGF0qZsPj_wz88P-21" value="Zapisanie w pliku konfiguracyjnym" style="whiteSpace=wrap;html=1;" parent="1" vertex="1">
          <mxGeometry x="140" y="770" width="120" height="60" as="geometry" />
        </mxCell>
        <mxCell id="s9DNXZGF0qZsPj_wz88P-23" value="Okno 1 konfiguracji" style="text;html=1;align=center;verticalAlign=middle;resizable=0;points=[];autosize=1;strokeColor=none;fillColor=none;" parent="1" vertex="1">
          <mxGeometry x="30" y="290" width="130" height="30" as="geometry" />
        </mxCell>
        <mxCell id="s9DNXZGF0qZsPj_wz88P-27" value="Zaczytanie configu&lt;br&gt;" style="text;html=1;align=center;verticalAlign=middle;resizable=0;points=[];autosize=1;strokeColor=none;fillColor=none;" parent="1" vertex="1">
          <mxGeometry x="310" y="410" width="120" height="30" as="geometry" />
        </mxCell>
        <mxCell id="s9DNXZGF0qZsPj_wz88P-33" style="edgeStyle=orthogonalEdgeStyle;rounded=0;orthogonalLoop=1;jettySize=auto;html=1;entryX=0.5;entryY=0;entryDx=0;entryDy=0;" parent="1" source="s9DNXZGF0qZsPj_wz88P-30" target="s9DNXZGF0qZsPj_wz88P-32" edge="1">
          <mxGeometry relative="1" as="geometry" />
        </mxCell>
        <mxCell id="s9DNXZGF0qZsPj_wz88P-30" value="Stworzenie maili" style="whiteSpace=wrap;html=1;" parent="1" vertex="1">
          <mxGeometry x="500" y="310" width="120" height="60" as="geometry" />
        </mxCell>
        <mxCell id="s9DNXZGF0qZsPj_wz88P-32" value="Wysłąnie" style="whiteSpace=wrap;html=1;" parent="1" vertex="1">
          <mxGeometry x="500" y="440" width="120" height="60" as="geometry" />
        </mxCell>
        <mxCell id="s9DNXZGF0qZsPj_wz88P-67" style="edgeStyle=orthogonalEdgeStyle;rounded=0;orthogonalLoop=1;jettySize=auto;html=1;" parent="1" source="s9DNXZGF0qZsPj_wz88P-36" target="s9DNXZGF0qZsPj_wz88P-66" edge="1">
          <mxGeometry relative="1" as="geometry" />
        </mxCell>
        <mxCell id="s9DNXZGF0qZsPj_wz88P-36" value="Edycja statementów" style="rounded=0;whiteSpace=wrap;html=1;" parent="1" vertex="1">
          <mxGeometry x="-150" y="180" width="120" height="60" as="geometry" />
        </mxCell>
        <mxCell id="s9DNXZGF0qZsPj_wz88P-38" value="&lt;h1&gt;Klasy&lt;/h1&gt;" style="text;html=1;strokeColor=none;fillColor=none;spacing=5;spacingTop=-20;whiteSpace=wrap;overflow=hidden;rounded=0;" parent="1" vertex="1">
          <mxGeometry x="-90" y="870" width="80" height="40" as="geometry" />
        </mxCell>
        <mxCell id="s9DNXZGF0qZsPj_wz88P-39" value="Główna klasa" style="rounded=1;whiteSpace=wrap;html=1;arcSize=14;" parent="1" vertex="1">
          <mxGeometry x="-120" y="920" width="120" height="60" as="geometry" />
        </mxCell>
        <mxCell id="s9DNXZGF0qZsPj_wz88P-44" value="&lt;h1&gt;Biblioteki&lt;/h1&gt;&lt;div&gt;Pandas/openpyxl&lt;/div&gt;&lt;div&gt;Tkinter/pysimplegui&lt;/div&gt;&lt;div&gt;sys/os&lt;/div&gt;&lt;div&gt;json&lt;/div&gt;&lt;div&gt;win32client&lt;/div&gt;" style="text;html=1;strokeColor=none;fillColor=none;spacing=5;spacingTop=-20;whiteSpace=wrap;overflow=hidden;rounded=0;" parent="1" vertex="1">
          <mxGeometry x="-490" y="50" width="190" height="120" as="geometry" />
        </mxCell>
        <mxCell id="s9DNXZGF0qZsPj_wz88P-55" value="Inicjalizacja&lt;br&gt;" style="rounded=0;whiteSpace=wrap;html=1;" parent="1" vertex="1">
          <mxGeometry x="70" y="920" width="120" height="60" as="geometry" />
        </mxCell>
        <mxCell id="s9DNXZGF0qZsPj_wz88P-58" value="&lt;h1&gt;Metody&lt;/h1&gt;" style="text;html=1;strokeColor=none;fillColor=none;spacing=5;spacingTop=-20;whiteSpace=wrap;overflow=hidden;rounded=0;" parent="1" vertex="1">
          <mxGeometry x="80" y="870" width="100" height="40" as="geometry" />
        </mxCell>
        <mxCell id="s9DNXZGF0qZsPj_wz88P-59" value="&lt;h1&gt;Atrybuty&lt;/h1&gt;" style="text;html=1;strokeColor=none;fillColor=none;spacing=5;spacingTop=-20;whiteSpace=wrap;overflow=hidden;rounded=0;" parent="1" vertex="1">
          <mxGeometry x="-330" y="873" width="160" height="40" as="geometry" />
        </mxCell>
        <mxCell id="s9DNXZGF0qZsPj_wz88P-62" value="Cechy okienka&lt;br&gt;cechy excela&lt;br&gt;config&lt;br&gt;" style="text;html=1;align=center;verticalAlign=middle;resizable=0;points=[];autosize=1;strokeColor=none;fillColor=none;" parent="1" vertex="1">
          <mxGeometry x="-330" y="913" width="100" height="60" as="geometry" />
        </mxCell>
        <mxCell id="s9DNXZGF0qZsPj_wz88P-64" style="edgeStyle=orthogonalEdgeStyle;rounded=0;orthogonalLoop=1;jettySize=auto;html=1;entryX=0;entryY=0.5;entryDx=0;entryDy=0;" parent="1" source="s9DNXZGF0qZsPj_wz88P-63" target="s9DNXZGF0qZsPj_wz88P-5" edge="1">
          <mxGeometry relative="1" as="geometry" />
        </mxCell>
        <mxCell id="s9DNXZGF0qZsPj_wz88P-65" style="edgeStyle=orthogonalEdgeStyle;rounded=0;orthogonalLoop=1;jettySize=auto;html=1;" parent="1" source="s9DNXZGF0qZsPj_wz88P-63" target="s9DNXZGF0qZsPj_wz88P-36" edge="1">
          <mxGeometry relative="1" as="geometry" />
        </mxCell>
        <mxCell id="s9DNXZGF0qZsPj_wz88P-63" value="Edytuj / Dodaj" style="text;html=1;align=center;verticalAlign=middle;resizable=0;points=[];autosize=1;strokeColor=none;fillColor=none;" parent="1" vertex="1">
          <mxGeometry x="10" y="195" width="100" height="30" as="geometry" />
        </mxCell>
        <mxCell id="s9DNXZGF0qZsPj_wz88P-68" style="edgeStyle=orthogonalEdgeStyle;rounded=0;orthogonalLoop=1;jettySize=auto;html=1;entryX=0;entryY=0.5;entryDx=0;entryDy=0;" parent="1" source="s9DNXZGF0qZsPj_wz88P-66" target="s9DNXZGF0qZsPj_wz88P-7" edge="1">
          <mxGeometry relative="1" as="geometry" />
        </mxCell>
        <mxCell id="s9DNXZGF0qZsPj_wz88P-66" value="Zaczytanie konta&lt;br&gt;" style="rounded=0;whiteSpace=wrap;html=1;" parent="1" vertex="1">
          <mxGeometry x="-150" y="320" width="120" height="60" as="geometry" />
        </mxCell>
        <mxCell id="0kHMWZ0xx7MPA_CWao2R-1" value="Operacje na danych configowych" style="rounded=1;whiteSpace=wrap;html=1;arcSize=14;" vertex="1" parent="1">
          <mxGeometry x="-120" y="1030" width="120" height="60" as="geometry" />
        </mxCell>
        <mxCell id="0kHMWZ0xx7MPA_CWao2R-2" value="Tworzenie odpowiednich tabel na podstawie configu" style="rounded=1;whiteSpace=wrap;html=1;arcSize=14;" vertex="1" parent="1">
          <mxGeometry x="-120" y="1130" width="120" height="60" as="geometry" />
        </mxCell>
        <mxCell id="0kHMWZ0xx7MPA_CWao2R-3" value="Tworzenie maili" style="rounded=1;whiteSpace=wrap;html=1;arcSize=14;" vertex="1" parent="1">
          <mxGeometry x="-120" y="1240" width="120" height="60" as="geometry" />
        </mxCell>
      </root>
    </mxGraphModel>
  </diagram>
</mxfile>
